<?xml version="1.0" encoding="utf-8"?>
<!-- Generator: Adobe Illustrator 18.0.0, SVG Export Plug-In . SVG Version: 6.00 Build 0)  -->
<!DOCTYPE svg PUBLIC "-//W3C//DTD SVG 1.1//EN" "http://www.w3.org/Graphics/SVG/1.1/DTD/svg11.dtd">
<svg version="1.1" id="Capa_1" xmlns="http://www.w3.org/2000/svg" xmlns:xlink="http://www.w3.org/1999/xlink" x="0px" y="0px"
	 viewBox="0 0 468 250" enable-background="new 0 0 468 250" xml:space="preserve">
<path fill="#FFFFFF" stroke="#CACACA" stroke-width="1.2" d="M474.8,6"/>
<g>
	<path fill="none" d="M113.2,52c107.3-64.6,246.7-30,311.4,77.3c3.4,5.7,6.6,11.5,9.4,17.3"/>
	<path fill="#009BDB" d="M291.7,20.7l3.3-8.1l8.4,2.5l-0.7,2.4l-5.9-1.7l-1.4,3.4c0.3-0.1,0.7-0.2,1.2-0.2c0.5,0,1,0.1,1.5,0.2
		c1.4,0.4,2.4,1.1,2.9,2.2c0.5,1.1,0.5,2.5,0.1,4.1c-0.4,1.5-1.2,2.6-2.3,3.3c-1.1,0.7-2.5,0.8-4.2,0.3c-1.4-0.4-2.5-1.1-3.2-2.1
		c-0.8-1-0.9-2.2-0.5-3.4l0,0l2.9,0.7c-0.2,0.6-0.1,1.2,0.1,1.6c0.3,0.5,0.7,0.8,1.3,1c0.7,0.2,1.3,0.1,1.8-0.2
		c0.5-0.4,0.8-1,1.1-1.9c0.3-0.9,0.3-1.6,0.1-2.2c-0.2-0.6-0.7-1-1.4-1.2c-0.6-0.2-1-0.2-1.4-0.1c-0.4,0.1-0.7,0.3-0.9,0.7
		L291.7,20.7z"/>
</g>
<g>
	<path fill="none" d="M425.3,133c25.5,47.1,32.7,100,23.3,149.9"/>
	<path fill="#CF0407" d="M458.9,204.4c0.1,0.7,0.4,1.3,0.8,1.6c0.4,0.3,1,0.4,1.7,0.3c0.6-0.1,1-0.4,1.4-0.8c0.3-0.4,0.4-1,0.3-1.7
		c-0.1-0.6-0.3-1-0.7-1.3s-0.9-0.5-1.4-0.4l-0.5-3l0.1,0c1.2-0.2,2.3,0.1,3.2,0.9c0.9,0.9,1.5,2,1.7,3.4c0.2,1.6,0.1,2.9-0.5,4
		s-1.6,1.7-3,1.9c-0.7,0.1-1.4,0-2-0.3c-0.7-0.3-1.2-0.8-1.7-1.5c-0.2,0.9-0.5,1.5-1.1,2.1c-0.6,0.5-1.3,0.9-2.1,1
		c-1.4,0.2-2.6-0.1-3.6-1c-1-0.9-1.6-2.1-1.8-3.7c-0.2-1.4,0-2.7,0.6-3.9c0.6-1.2,1.6-1.8,3-2l0.1,0l0.5,3c-0.6,0.1-1,0.4-1.4,0.8
		c-0.3,0.5-0.4,1-0.3,1.7c0.1,0.7,0.4,1.2,0.9,1.6c0.5,0.4,1,0.5,1.7,0.4c0.8-0.1,1.4-0.4,1.7-0.9c0.3-0.5,0.4-1.1,0.3-1.9l-0.3-1.7
		l2.3-0.4L458.9,204.4z"/>
</g>
<g>
	<defs>
		<rect id="SVGID_1_" x="16.9" y="23" width="437.2" height="216.2"/>
	</defs>
	<clipPath id="SVGID_2_">
		<use xlink:href="#SVGID_1_"  overflow="visible"/>
	</clipPath>
	<g clip-path="url(#SVGID_2_)">
		<defs>
			<path id="SVGID_3_" d="M234.1,25.2c-118.8,0-215.1,96.3-215.1,215.1c0,118.8,96.3,215.1,215.1,215.1S449.2,359,449.2,240.3
				C449.2,121.5,352.9,25.2,234.1,25.2z M234.1,327.2c-48,0-87-38.9-87-87c0-48,38.9-87,87-87c48,0,87,38.9,87,87
				C321.1,288.3,282.2,327.2,234.1,327.2z"/>
		</defs>
		<clipPath id="SVGID_4_">
			<use xlink:href="#SVGID_3_"  overflow="visible"/>
		</clipPath>
		<g>
			<g clip-path="url(#SVGID_4_)">
				<g>
					<g>
						<path fill="#808080" stroke="#FFFFFF" stroke-miterlimit="10" d="M234,240.2h212.5c0,117.3-95.1,212.5-212.5,212.5
							S21.5,357.6,21.5,240.2l0,0H234z"/>
					</g>
				</g>
				<g>
					<g>
						<path fill="#E6E6E6" d="M234,240.2l212.4-3.7c0,0.8,0,2.9,0,3.7H234z"/>
					</g>
				</g>
				<g>
					<g>
						<path fill="#E6E6E6" d="M234,240.2l212.2-11.1c0.1,2.7,0.2,4.7,0.3,7.4L234,240.2z"/>
					</g>
				</g>
				<g>
					<g>
						<path fill="#E6E6E6" d="M234,240.2l211.9-14.8c0.1,0.8,0.2,2.9,0.2,3.7L234,240.2z"/>
					</g>
				</g>
				<g>
					<g>
						<path fill="#F5D9DB" d="M234,240.2l211.7-18.5c0.2,1.8,0.2,1.9,0.3,3.7L234,240.2z"/>
					</g>
				</g>
				<g>
					<g>
						<path fill="#F5D9DB" d="M234,240.2l210.4-29.6c0.5,3.6,0.9,7.4,1.3,11.1L234,240.2z"/>
					</g>
				</g>
				<g>
					<g>
						<path fill="#BF0411" d="M234,240.2l209.2-36.9c0.5,2.7,0.8,4.7,1.2,7.3L234,240.2z"/>
					</g>
				</g>
				<g>
					<g>
						<path fill="#F5D9DB" d="M234,240.2l93.1-191c63.4,30.9,103.9,84.6,116.1,154.1L234,240.2z"/>
					</g>
				</g>
				<g>
					<g>
						<path fill="#D9F0FA" d="M234,240.2l65.7-202.1c9.5,3.1,18.5,6.7,27.5,11.1L234,240.2z"/>
					</g>
				</g>
				<g>
					<g>
						<path fill="#009BDB" d="M234,240.2l51.4-206.2c4.4,1.1,9.9,2.7,14.3,4.1L234,240.2z"/>
					</g>
				</g>
				<g>
					<g>
						<path fill="#D9F0FA" d="M234,240.2l-7.4-212.3c21-0.7,38.4,1.1,58.8,6.2L234,240.2z"/>
					</g>
				</g>
				<g>
					<g>
						<path fill="#D9F0FA" d="M234,240.2L144.2,47.7c27.3-12.7,52.2-18.7,82.4-19.8L234,240.2z"/>
					</g>
				</g>
				<g>
					<g>
						<path fill="#D9F0FA" d="M234,240.2L131,54.4c4.7-2.6,8.3-4.5,13.2-6.7L234,240.2z"/>
					</g>
				</g>
				<g>
					<g>
						<path fill="#D9F0FA" d="M234,240.2H21.5C21.5,160.5,61.3,93,131,54.4L234,240.2z"/>
					</g>
				</g>
			</g>
			<g clip-path="url(#SVGID_4_)">
				<g>
				</g>
				<g>
				</g>
				<g>
				</g>
				<g>
				</g>
				<g>
				</g>
				<g>
				</g>
				<g>
				</g>
				<g>
				</g>
				<g>
				</g>
				<g>
				</g>
				<g>
				</g>
				<g>
				</g>
				<g>
				</g>
				<g>
				</g>
			</g>
		</g>
	</g>
	
		<line clip-path="url(#SVGID_2_)" fill="none" stroke="#000000" stroke-width="1.2" stroke-linecap="round" stroke-miterlimit="10" stroke-dasharray="0,1.999" x1="3.2" y1="260.5" x2="461.5" y2="260.5"/>
</g>
<line fill="none" stroke="#FFFFFF" stroke-width="2" stroke-miterlimit="10" x1="344" y1="16" x2="238" y2="232.3"/>
<line fill="none" stroke="#FFFFFF" stroke-width="2" stroke-miterlimit="10" x1="454.5" y1="224" x2="234" y2="239.3"/>
<g>
</g>
<g>
</g>
<g>
</g>
<g>
</g>
<g>
</g>
<g>
</g>
<g>
</g>
<g>
</g>
<g>
</g>
<g>
</g>
<g>
</g>
<g>
</g>
<g>
</g>
<g>
</g>
<g>
</g>
</svg>
