<?xml version="1.0" encoding="utf-8"?>
<!-- Generator: Adobe Illustrator 18.0.0, SVG Export Plug-In . SVG Version: 6.00 Build 0)  -->
<!DOCTYPE svg PUBLIC "-//W3C//DTD SVG 1.1//EN" "http://www.w3.org/Graphics/SVG/1.1/DTD/svg11.dtd">
<svg version="1.1" id="Capa_1" xmlns="http://www.w3.org/2000/svg" xmlns:xlink="http://www.w3.org/1999/xlink" x="0px" y="0px"
	 viewBox="0 0 468 250" enable-background="new 0 0 468 250" xml:space="preserve">
<path fill="#FFFFFF" stroke="#CACACA" stroke-width="1.2" d="M474.8,6"/>
<g>
	<path fill="none" d="M35.7,137.7C96.2,28,234.2-11.9,343.9,48.7c5.8,3.2,11.4,6.6,16.9,10.3"/>
	<path fill="#009BDB" d="M172.3,19.5c0.7-0.2,1.2-0.5,1.4-1c0.2-0.5,0.3-1,0.1-1.7c-0.2-0.6-0.5-1-0.9-1.3c-0.5-0.3-1-0.3-1.7-0.1
		c-0.6,0.2-1,0.4-1.3,0.9c-0.3,0.4-0.4,0.9-0.2,1.5l-2.9,0.8l0-0.1c-0.4-1.2-0.2-2.3,0.6-3.3c0.7-1,1.8-1.7,3.2-2.1
		c1.6-0.4,2.9-0.4,4,0.1c1.1,0.5,1.9,1.4,2.2,2.8c0.2,0.7,0.2,1.4-0.1,2.1s-0.7,1.3-1.3,1.8c0.9,0.1,1.6,0.4,2.2,0.9
		c0.6,0.5,1,1.2,1.2,2c0.4,1.4,0.2,2.6-0.6,3.7c-0.8,1.1-2,1.8-3.5,2.2c-1.4,0.4-2.7,0.3-3.9-0.1c-1.2-0.5-2-1.4-2.3-2.7l0-0.1
		l2.9-0.8c0.2,0.6,0.5,1,1,1.3c0.5,0.3,1.1,0.3,1.7,0.2c0.7-0.2,1.2-0.5,1.5-1.1c0.3-0.5,0.4-1.1,0.2-1.7c-0.2-0.8-0.6-1.3-1.1-1.6
		s-1.1-0.3-1.9-0.1l-1.7,0.5l-0.6-2.3L172.3,19.5z"/>
	<path fill="#009BDB" d="M184.9,16.4c0.7-0.2,1.2-0.5,1.5-0.9c0.3-0.5,0.3-1,0.2-1.7c-0.1-0.6-0.4-1-0.9-1.3c-0.5-0.3-1-0.4-1.7-0.2
		c-0.6,0.1-1,0.4-1.3,0.8c-0.3,0.4-0.4,0.9-0.3,1.4l-3,0.6l0-0.1c-0.3-1.2,0-2.3,0.8-3.3s1.9-1.6,3.3-1.9c1.6-0.3,2.9-0.2,4,0.3
		c1.1,0.5,1.8,1.5,2.1,2.9c0.1,0.7,0.1,1.4-0.2,2.1c-0.3,0.7-0.7,1.2-1.4,1.7c0.9,0.1,1.6,0.5,2.1,1c0.6,0.5,0.9,1.2,1.1,2.1
		c0.3,1.4,0,2.6-0.8,3.6c-0.8,1-2.1,1.7-3.6,2c-1.4,0.3-2.7,0.2-3.9-0.4c-1.2-0.5-1.9-1.5-2.2-2.9l0-0.1l3-0.6
		c0.1,0.6,0.4,1,0.9,1.3c0.5,0.3,1,0.4,1.7,0.2c0.7-0.2,1.2-0.5,1.6-1c0.3-0.5,0.5-1.1,0.3-1.7c-0.2-0.8-0.5-1.4-1-1.7
		c-0.5-0.3-1.1-0.4-1.9-0.2l-1.7,0.4l-0.5-2.3L184.9,16.4z"/>
</g>
<g>
	<path fill="none" d="M450.1,214c1.9,12.6,2.8,25.6,2.6,38.8"/>
	<path fill="#808080" d="M461.4,232.6c0,0.7,0.3,1.3,0.7,1.6c0.4,0.3,1,0.5,1.7,0.4c0.6,0,1.1-0.3,1.4-0.7c0.4-0.4,0.5-0.9,0.5-1.6
		c0-0.6-0.2-1-0.6-1.4s-0.8-0.5-1.4-0.5l-0.2-3l0.1,0c1.2-0.1,2.3,0.3,3.1,1.2c0.9,0.9,1.3,2.1,1.4,3.6c0.1,1.6-0.2,2.9-0.9,3.9
		c-0.7,1-1.8,1.5-3.2,1.6c-0.7,0-1.4-0.1-2-0.5c-0.6-0.4-1.1-0.9-1.5-1.6c-0.3,0.8-0.7,1.5-1.3,2c-0.6,0.5-1.3,0.8-2.2,0.8
		c-1.4,0.1-2.6-0.3-3.5-1.3c-0.9-1-1.4-2.3-1.5-3.9c-0.1-1.4,0.2-2.7,0.9-3.8c0.7-1.1,1.7-1.7,3.1-1.8l0.1,0l0.2,3
		c-0.6,0-1.1,0.3-1.4,0.7c-0.4,0.4-0.5,1-0.5,1.6c0,0.7,0.3,1.3,0.7,1.7c0.5,0.4,1,0.6,1.6,0.6c0.8-0.1,1.4-0.3,1.8-0.7
		c0.4-0.4,0.5-1.1,0.5-1.9l-0.1-1.7l2.3-0.2L461.4,232.6z"/>
</g>
<g display="none">
	<path display="inline" fill="none" d="M362.7,62.3c43,31.9,71.8,76.9,84.3,126.1"/>
	<path display="inline" fill="#CF0407" d="M423.3,119.3c-1.5,1-3,1.4-4.4,1.2s-2.5-1-3.4-2.3c-0.9-1.3-1.2-2.7-0.8-4.1
		c0.3-1.4,1.3-2.6,2.8-3.6l3.6-2.4c1.5-1,3-1.4,4.4-1.2c1.4,0.2,2.6,1,3.4,2.3c0.9,1.3,1.2,2.7,0.8,4.1c-0.3,1.4-1.3,2.6-2.8,3.6
		L423.3,119.3z M425.4,114.2c0.8-0.6,1.4-1.1,1.6-1.8s0.2-1.2-0.2-1.8c-0.4-0.6-0.9-0.9-1.6-0.9c-0.7,0-1.4,0.3-2.3,0.8l-4.1,2.7
		c-0.9,0.6-1.4,1.2-1.6,1.8c-0.2,0.6-0.2,1.2,0.2,1.8c0.4,0.6,0.9,0.9,1.6,0.9s1.4-0.3,2.3-0.8L425.4,114.2z"/>
</g>
<g>
	<defs>
		<rect id="SVGID_1_" x="16.9" y="23" width="437.2" height="216.2"/>
	</defs>
	<clipPath id="SVGID_2_">
		<use xlink:href="#SVGID_1_"  overflow="visible"/>
	</clipPath>
	<g clip-path="url(#SVGID_2_)">
		<defs>
			<path id="SVGID_3_" d="M234.1,25.2c-118.8,0-215.1,96.3-215.1,215.1c0,118.8,96.3,215.1,215.1,215.1S449.2,359,449.2,240.3
				C449.2,121.5,352.9,25.2,234.1,25.2z M234.1,327.2c-48,0-87-38.9-87-87c0-48,38.9-87,87-87c48,0,87,38.9,87,87
				C321.1,288.3,282.2,327.2,234.1,327.2z"/>
		</defs>
		<clipPath id="SVGID_4_">
			<use xlink:href="#SVGID_3_"  overflow="visible"/>
		</clipPath>
		<g>
			<g clip-path="url(#SVGID_4_)">
				<g>
					<g>
						<path fill="#808080" stroke="#FFFFFF" stroke-miterlimit="10" d="M234,240.2h212.5c0,117.3-95.1,212.5-212.5,212.5
							S21.5,357.6,21.5,240.2l0,0H234z"/>
					</g>
				</g>
				<g>
					<g>
						<path fill="#E6E6E6" d="M234,240.2l212.4-3.7c0,0.8,0,2.9,0,3.7H234z"/>
					</g>
				</g>
				<g>
					<g>
						<path fill="#808080" d="M234,240.2l212.2-11.1c0.1,2.7,0.2,4.7,0.3,7.4L234,240.2z"/>
					</g>
				</g>
				<g>
					<g>
						<path fill="#E6E6E6" d="M234,240.2l211.9-14.8c0.1,0.8,0.2,2.9,0.2,3.7L234,240.2z"/>
					</g>
				</g>
				<g>
					<g>
						<path fill="#F5D9DB" d="M234,240.2l211.7-18.5c0.2,1.8,0.2,1.9,0.3,3.7L234,240.2z"/>
					</g>
				</g>
				<g>
					<g>
						<path fill="#F5D9DB" d="M234,240.2l210.4-29.6c0.5,3.6,0.9,7.4,1.3,11.1L234,240.2z"/>
					</g>
				</g>
				<g>
					<g>
						<path fill="#F5D9DB" d="M234,240.2l209.2-36.9c0.5,2.7,0.8,4.7,1.2,7.3L234,240.2z"/>
					</g>
				</g>
				<g>
					<g>
						<path fill="#F5D9DB" d="M234,240.2l93.1-191c63.4,30.9,103.9,84.6,116.1,154.1L234,240.2z"/>
					</g>
				</g>
				<g>
					<g>
						<path fill="#D9F0FA" d="M234,240.2l65.7-202.1c9.5,3.1,18.5,6.7,27.5,11.1L234,240.2z"/>
					</g>
				</g>
				<g>
					<g>
						<path fill="#D9F0FA" d="M234,240.2l51.4-206.2c4.4,1.1,9.9,2.7,14.3,4.1L234,240.2z"/>
					</g>
				</g>
				<g>
					<g>
						<path fill="#D9F0FA" d="M234,240.2l-7.4-212.3c21-0.7,38.4,1.1,58.8,6.2L234,240.2z"/>
					</g>
				</g>
				<g>
					<g>
						<path fill="#009BDB" d="M234,240.2L144.2,47.7c27.3-12.7,52.2-18.7,82.4-19.8L234,240.2z"/>
					</g>
				</g>
				<g>
					<g>
						<path fill="#D9F0FA" d="M234,240.2L131,54.4c4.7-2.6,8.3-4.5,13.2-6.7L234,240.2z"/>
					</g>
				</g>
				<g>
					<g>
						<path fill="#D9F0FA" d="M234,240.2H21.5C21.5,160.5,61.3,93,131,54.4L234,240.2z"/>
					</g>
				</g>
			</g>
			<g clip-path="url(#SVGID_4_)">
				<g>
				</g>
				<g>
				</g>
				<g>
				</g>
				<g>
				</g>
				<g>
				</g>
				<g>
				</g>
				<g>
				</g>
				<g>
				</g>
				<g>
				</g>
				<g>
				</g>
				<g>
				</g>
				<g>
				</g>
				<g>
				</g>
				<g>
				</g>
			</g>
		</g>
	</g>
	
		<line clip-path="url(#SVGID_2_)" fill="none" stroke="#000000" stroke-width="1.2" stroke-linecap="round" stroke-miterlimit="10" stroke-dasharray="0,1.999" x1="3.2" y1="260.5" x2="461.5" y2="260.5"/>
</g>
<line fill="none" stroke="#FFFFFF" stroke-width="2" stroke-miterlimit="10" x1="344" y1="16" x2="238" y2="232.3"/>
<line fill="none" stroke="#FFFFFF" stroke-width="2" stroke-miterlimit="10" x1="454.5" y1="224" x2="234" y2="239.3"/>
<g>
</g>
<g>
</g>
<g>
</g>
<g>
</g>
<g>
</g>
<g>
</g>
<g>
</g>
<g>
</g>
<g>
</g>
<g>
</g>
<g>
</g>
<g>
</g>
<g>
</g>
<g>
</g>
<g>
</g>
</svg>
