<?xml version="1.0" encoding="utf-8"?>
<!-- Generator: Adobe Illustrator 18.0.0, SVG Export Plug-In . SVG Version: 6.00 Build 0)  -->
<!DOCTYPE svg PUBLIC "-//W3C//DTD SVG 1.1//EN" "http://www.w3.org/Graphics/SVG/1.1/DTD/svg11.dtd">
<svg version="1.1" id="Capa_1" xmlns="http://www.w3.org/2000/svg" xmlns:xlink="http://www.w3.org/1999/xlink" x="0px" y="0px"
	 viewBox="0 0 468 250" enable-background="new 0 0 468 250" xml:space="preserve">
<path fill="#FFFFFF" stroke="#CACACA" stroke-width="1.2" d="M474.8,6"/>
<g>
	<path fill="none" d="M16,193.1C45.7,71.4,168.4-3.2,290.2,26.5c6.5,1.6,12.8,3.4,19,5.5"/>
	<path fill="#009BDB" d="M118.2,53.2l-2.7,1.7l-6.8-11l-2.7,1.7l-1.3-2l5.1-3.8L118.2,53.2z"/>
	<path fill="#009BDB" d="M120.2,33.8c0.5-0.3,1.1-0.5,1.6-0.7c0.5-0.2,1-0.3,1.6-0.3l0.6,2.3c-0.5,0.1-0.9,0.2-1.3,0.3
		c-0.4,0.1-0.8,0.3-1.2,0.5c-0.8,0.4-1.3,1.1-1.4,2c-0.2,0.9,0.1,1.9,0.7,3l0.2,0.4c0.2-0.6,0.4-1.1,0.8-1.5
		c0.4-0.5,0.9-0.9,1.5-1.2c1.2-0.6,2.3-0.7,3.4-0.3c1.1,0.5,2,1.4,2.8,2.7c0.8,1.4,0.9,2.7,0.6,4.1c-0.4,1.3-1.3,2.4-2.6,3.1
		c-1.4,0.8-2.9,0.9-4.3,0.5c-1.4-0.5-2.6-1.6-3.6-3.3l-1.6-2.9c-1-1.7-1.2-3.4-0.8-5C117.6,35.9,118.6,34.7,120.2,33.8z M123.5,41.2
		c-0.5,0.3-0.9,0.6-1.1,0.9c-0.3,0.4-0.4,0.7-0.4,1.1l0.4,0.7c0.6,1.1,1.2,1.8,1.9,2.1c0.7,0.4,1.4,0.4,2,0c0.6-0.3,0.9-0.8,1-1.5
		c0.1-0.7-0.1-1.4-0.5-2.1c-0.4-0.8-0.9-1.3-1.5-1.5C124.6,40.8,124,40.8,123.5,41.2z"/>
	<path fill="#009BDB" d="M130.8,38.3l-3-8.3l7.9-3.8l1.1,2.3l-5.5,2.7l1.2,3.5c0.2-0.3,0.4-0.6,0.8-1c0.3-0.3,0.7-0.6,1.2-0.8
		c1.3-0.7,2.5-0.7,3.6-0.3s2,1.5,2.8,3c0.7,1.4,0.8,2.7,0.5,4c-0.4,1.3-1.3,2.3-2.9,3.1c-1.3,0.6-2.6,0.8-3.8,0.6
		c-1.3-0.2-2.2-1-2.7-2.2l0-0.1l2.7-1.4c0.3,0.6,0.7,1,1.2,1.1c0.5,0.2,1.1,0.1,1.6-0.2c0.7-0.3,1.1-0.8,1.2-1.4
		c0.1-0.6-0.1-1.3-0.4-2.1c-0.4-0.8-0.9-1.4-1.4-1.7c-0.6-0.3-1.2-0.3-1.8,0c-0.5,0.3-0.9,0.6-1.1,0.9c-0.2,0.3-0.3,0.7-0.2,1.1
		L130.8,38.3z"/>
</g>
<g>
	<path fill="none" d="M436.3,155.7c19.9,49.7,21,103.1,5.9,151.5"/>
	<path fill="#808080" d="M458.9,225.9l8.8,0.6l0.3,8.7l-2.5,0.1l-0.2-6.2l-3.7-0.3c0.2,0.3,0.4,0.6,0.6,1.1c0.2,0.4,0.3,0.9,0.3,1.4
		c0.1,1.5-0.3,2.6-1.2,3.4c-0.9,0.8-2.2,1.3-3.8,1.3c-1.5,0.1-2.8-0.3-3.8-1.2c-1-0.8-1.6-2.1-1.6-3.9c-0.1-1.4,0.3-2.7,1-3.7
		s1.8-1.6,3.1-1.6l0.1,0l0.3,3c-0.7,0-1.2,0.2-1.5,0.7c-0.3,0.4-0.5,0.9-0.5,1.6c0,0.7,0.3,1.3,0.8,1.6c0.5,0.3,1.2,0.5,2.1,0.4
		s1.6-0.2,2.1-0.6c0.5-0.4,0.8-1,0.7-1.7c0-0.6-0.2-1.1-0.4-1.4s-0.5-0.5-0.9-0.6L458.9,225.9z"/>
</g>
<g>
	<path fill="none" d="M363,62.6c42.9,32,71.7,77.1,84.1,126.2"/>
	<path fill="#CF0407" d="M424.7,110.8c-0.6,0.4-1.3,0.7-2,0.7c-0.7,0-1.4-0.2-2.1-0.5c0.2,0.9,0.2,1.7-0.1,2.5
		c-0.2,0.8-0.7,1.4-1.4,1.9c-1.2,0.8-2.4,1.1-3.6,0.7c-1.2-0.4-2.3-1.2-3.2-2.5c-0.9-1.3-1.4-2.7-1.3-4c0.1-1.3,0.7-2.4,1.9-3.2
		c0.7-0.5,1.5-0.7,2.3-0.7c0.8,0,1.7,0.3,2.5,0.9c-0.2-0.8-0.1-1.5,0.1-2.2c0.2-0.7,0.7-1.3,1.3-1.7c1.1-0.8,2.3-1,3.4-0.7
		c1.1,0.3,2.2,1.1,3,2.4c0.8,1.2,1.2,2.3,1.1,3.5C426.4,109,425.8,110,424.7,110.8z M417.4,112.7c0.6-0.4,0.9-0.9,1-1.5
		s0-1.2-0.4-1.7c-0.4-0.6-0.9-0.9-1.6-1s-1.2,0-1.8,0.4c-0.6,0.4-0.9,0.9-1,1.5c-0.1,0.6,0.1,1.2,0.5,1.8c0.4,0.5,0.9,0.8,1.4,0.9
		C416.3,113.3,416.8,113.1,417.4,112.7z M422.8,108.3c0.5-0.4,0.8-0.8,0.9-1.2s0-0.9-0.3-1.3c-0.3-0.5-0.8-0.8-1.2-0.8
		c-0.5-0.1-1,0.1-1.5,0.4c-0.5,0.4-0.8,0.8-1,1.3c-0.1,0.5,0,1,0.3,1.5c0.3,0.4,0.7,0.6,1.2,0.7
		C421.7,108.8,422.3,108.7,422.8,108.3z"/>
	<path fill="#CF0407" d="M433.1,116c0.3,0.5,0.6,1,0.8,1.5c0.2,0.5,0.3,1,0.4,1.6l-2.2,0.7c-0.1-0.5-0.2-0.9-0.4-1.3
		c-0.1-0.4-0.3-0.8-0.6-1.2c-0.5-0.8-1.2-1.2-2.1-1.3c-0.9-0.1-1.9,0.2-2.9,0.8l-0.4,0.3c0.6,0.1,1.1,0.4,1.6,0.8
		c0.5,0.4,0.9,0.9,1.3,1.5c0.7,1.1,0.9,2.3,0.5,3.4c-0.4,1.1-1.3,2.1-2.5,2.9c-1.3,0.8-2.7,1.1-4,0.8c-1.3-0.3-2.4-1.1-3.3-2.5
		c-0.9-1.4-1.1-2.8-0.7-4.3c0.4-1.5,1.4-2.7,3.1-3.7l2.8-1.7c1.7-1.1,3.3-1.4,5-1C430.9,113.6,432.2,114.5,433.1,116z M426,119.7
		c-0.3-0.5-0.6-0.8-1-1.1c-0.4-0.2-0.7-0.4-1.1-0.4l-0.7,0.4c-1,0.6-1.7,1.3-2,2c-0.3,0.7-0.3,1.4,0.1,2c0.3,0.6,0.9,0.8,1.5,0.9
		c0.7,0,1.4-0.2,2.1-0.6c0.7-0.5,1.2-1,1.4-1.6C426.4,120.8,426.3,120.3,426,119.7z"/>
</g>
<g>
	<defs>
		<rect id="SVGID_1_" x="16.9" y="23" width="437.2" height="216.2"/>
	</defs>
	<clipPath id="SVGID_2_">
		<use xlink:href="#SVGID_1_"  overflow="visible"/>
	</clipPath>
	<g clip-path="url(#SVGID_2_)">
		<defs>
			<path id="SVGID_3_" d="M234.1,25.2c-118.8,0-215.1,96.3-215.1,215.1c0,118.8,96.3,215.1,215.1,215.1S449.2,359,449.2,240.3
				C449.2,121.5,352.9,25.2,234.1,25.2z M234.1,327.2c-48,0-87-38.9-87-87c0-48,38.9-87,87-87c48,0,87,38.9,87,87
				C321.1,288.3,282.2,327.2,234.1,327.2z"/>
		</defs>
		<clipPath id="SVGID_4_">
			<use xlink:href="#SVGID_3_"  overflow="visible"/>
		</clipPath>
		<g>
			<g clip-path="url(#SVGID_4_)">
				<g>
					<g>
						<path fill="#808080" stroke="#FFFFFF" stroke-miterlimit="10" d="M234,240.2h212.5c0,117.3-95.1,212.5-212.5,212.5
							S21.5,357.6,21.5,240.2l0,0H234z"/>
					</g>
				</g>
				<g>
					<g>
						<path fill="#808080" d="M234,240.2l212.4-3.7c0,0.8,0,2.9,0,3.7H234z"/>
					</g>
				</g>
				<g>
					<g>
						<path fill="#808080" d="M234,240.2l212.2-11.1c0.1,2.7,0.2,4.7,0.3,7.4L234,240.2z"/>
					</g>
				</g>
				<g>
					<g>
						<path fill="#808080" d="M234,240.2l211.9-14.8c0.1,0.8,0.2,2.9,0.2,3.7L234,240.2z"/>
					</g>
				</g>
				<g>
					<g>
						<path fill="#BF0411" d="M234,240.2l211.7-18.5c0.2,1.8,0.2,1.9,0.3,3.7L234,240.2z"/>
					</g>
				</g>
				<g>
					<g>
						<path fill="#BF0411" d="M234,240.2l210.4-29.6c0.5,3.6,0.9,7.4,1.3,11.1L234,240.2z"/>
					</g>
				</g>
				<g>
					<g>
						<path fill="#BF0411" d="M234,240.2l209.2-36.9c0.5,2.7,0.8,4.7,1.2,7.3L234,240.2z"/>
					</g>
				</g>
				<g>
					<g>
						<path fill="#BF0411" d="M234,240.2l93.1-191c63.4,30.9,103.9,84.6,116.1,154.1L234,240.2z"/>
					</g>
				</g>
				<g>
					<g>
						<path fill="#009BDB" d="M234,240.2l65.7-202.1c9.5,3.1,18.5,6.7,27.5,11.1L234,240.2z"/>
					</g>
				</g>
				<g>
					<g>
						<path fill="#009BDB" d="M234,240.2l51.4-206.2c4.4,1.1,9.9,2.7,14.3,4.1L234,240.2z"/>
					</g>
				</g>
				<g>
					<g>
						<path fill="#009BDB" d="M234,240.2l-7.4-212.3c21-0.7,38.4,1.1,58.8,6.2L234,240.2z"/>
					</g>
				</g>
				<g>
					<g>
						<path fill="#009BDB" d="M234,240.2L144.2,47.7c27.3-12.7,52.2-18.7,82.4-19.8L234,240.2z"/>
					</g>
				</g>
				<g>
					<g>
						<path fill="#009BDB" d="M234,240.2L131,54.4c4.7-2.6,8.3-4.5,13.2-6.7L234,240.2z"/>
					</g>
				</g>
				<g>
					<g>
						<path fill="#009BDB" d="M234,240.2H21.5C21.5,160.5,61.3,93,131,54.4L234,240.2z"/>
					</g>
				</g>
			</g>
			<g clip-path="url(#SVGID_4_)">
				<g>
				</g>
				<g>
				</g>
				<g>
				</g>
				<g>
				</g>
				<g>
				</g>
				<g>
				</g>
				<g>
				</g>
				<g>
				</g>
				<g>
				</g>
				<g>
				</g>
				<g>
				</g>
				<g>
				</g>
				<g>
				</g>
				<g>
				</g>
			</g>
		</g>
	</g>
	
		<line clip-path="url(#SVGID_2_)" fill="none" stroke="#000000" stroke-width="1.2" stroke-linecap="round" stroke-miterlimit="10" stroke-dasharray="0,1.999" x1="3.2" y1="260.5" x2="461.5" y2="260.5"/>
</g>
<line fill="none" stroke="#FFFFFF" stroke-width="2" stroke-miterlimit="10" x1="344" y1="16" x2="238" y2="232.3"/>
<line fill="none" stroke="#FFFFFF" stroke-width="2" stroke-miterlimit="10" x1="454.5" y1="224" x2="234" y2="239.3"/>
<g>
</g>
<g>
</g>
<g>
</g>
<g>
</g>
<g>
</g>
<g>
</g>
<g>
</g>
<g>
</g>
<g>
</g>
<g>
</g>
<g>
</g>
<g>
</g>
<g>
</g>
<g>
</g>
<g>
</g>
</svg>
