<?xml version="1.0" encoding="utf-8"?>
<!-- Generator: Adobe Illustrator 18.0.0, SVG Export Plug-In . SVG Version: 6.00 Build 0)  -->
<!DOCTYPE svg PUBLIC "-//W3C//DTD SVG 1.1//EN" "http://www.w3.org/Graphics/SVG/1.1/DTD/svg11.dtd">
<svg version="1.1" id="Capa_1" xmlns="http://www.w3.org/2000/svg" xmlns:xlink="http://www.w3.org/1999/xlink" x="0px" y="0px"
	 viewBox="0 0 468 250" enable-background="new 0 0 468 250" xml:space="preserve">
<path fill="#FFFFFF" stroke="#CACACA" stroke-width="1.2" d="M474.8,6"/>
<g>
	<path fill="none" d="M19.5,299.6C-10.7,178,63.4,55,185,24.8c6.4-1.6,12.9-2.9,19.3-3.9"/>
	<path fill="#009BDB" d="M40,114.4c0.7,0.4,1.1,0.9,1.4,1.6c0.3,0.7,0.4,1.4,0.3,2.1c0.7-0.5,1.5-0.8,2.4-0.9
		c0.8-0.1,1.6,0.1,2.3,0.6c1.2,0.8,1.9,1.8,2.1,3.1c0.2,1.3-0.2,2.6-1,3.9c-0.9,1.4-1.9,2.3-3.2,2.8c-1.2,0.5-2.5,0.3-3.7-0.4
		c-0.7-0.4-1.2-1.1-1.5-1.9c-0.3-0.8-0.3-1.7-0.2-2.6c-0.7,0.4-1.4,0.7-2.1,0.7c-0.7,0-1.4-0.1-2.1-0.6c-1.2-0.7-1.8-1.7-1.9-2.9
		s0.2-2.4,1-3.7c0.8-1.2,1.7-2,2.8-2.4S38.9,113.7,40,114.4z M38.5,117.1c-0.5-0.3-1-0.4-1.5-0.4c-0.5,0.1-0.9,0.3-1.1,0.8
		c-0.3,0.5-0.4,1-0.3,1.5c0.1,0.5,0.4,0.9,1,1.2c0.5,0.3,1.1,0.5,1.6,0.4c0.5-0.1,0.9-0.4,1.2-0.9c0.3-0.4,0.3-0.9,0.2-1.4
		S39,117.5,38.5,117.1z M44.6,120.4c-0.6-0.4-1.2-0.5-1.8-0.4c-0.6,0.1-1.1,0.5-1.4,1c-0.4,0.6-0.5,1.2-0.4,1.8s0.5,1.1,1.1,1.5
		c0.6,0.4,1.2,0.5,1.8,0.3c0.6-0.2,1.1-0.6,1.5-1.2c0.3-0.5,0.4-1.1,0.3-1.7C45.6,121.2,45.2,120.7,44.6,120.4z"/>
	<path fill="#009BDB" d="M46.4,102.4c0.7,2.6,1.5,4.7,2.5,6.2c1,1.5,2.4,2.8,4.1,4.1l1.6,1.1l-1.8,2.6l-1.6-1.1
		c-1.8-1.3-3.2-2.7-4.2-4.4c-1-1.7-1.8-3.7-2.4-5.9l-4.6,6.5l-2-1.4l6.3-9L46.4,102.4z"/>
</g>
<g display="none">
	<path display="inline" fill="none" d="M434.7,152.1c20.8,49.3,22.8,102.7,8.6,151.4"/>
	<path display="inline" fill="#808080" d="M452.2,229.3l-0.2-3.1l12.9-0.7l-0.2-3.2l2.4-0.1l0.9,6.3L452.2,229.3z"/>
</g>
<g display="none">
	<path display="inline" fill="none" d="M354.6,56.7c44.3,30,75.2,73.6,89.9,122.2"/>
	<path display="inline" fill="#CF0407" d="M420.1,101.3c-2.7-0.1-4.9,0.1-6.6,0.6c-1.7,0.5-3.4,1.4-5.1,2.7l-1.5,1.2l-1.9-2.5
		l1.5-1.2c1.7-1.3,3.5-2.2,5.4-2.7s4-0.6,6.3-0.5l-4.9-6.3l1.9-1.5l6.8,8.7L420.1,101.3z"/>
	<path display="inline" fill="#CF0407" d="M427.6,112c-2.7-0.3-4.9-0.2-6.7,0.2c-1.7,0.4-3.5,1.2-5.2,2.5l-1.6,1.1l-1.8-2.6l1.6-1.1
		c1.8-1.2,3.6-2,5.6-2.4c1.9-0.4,4.1-0.4,6.4-0.2l-4.5-6.6l2-1.4l6.3,9L427.6,112z"/>
</g>
<g>
	<defs>
		<rect id="SVGID_1_" x="16.9" y="23" width="437.2" height="216.2"/>
	</defs>
	<clipPath id="SVGID_2_">
		<use xlink:href="#SVGID_1_"  overflow="visible"/>
	</clipPath>
	<g clip-path="url(#SVGID_2_)">
		<defs>
			<path id="SVGID_3_" d="M234.1,25.2c-118.8,0-215.1,96.3-215.1,215.1c0,118.8,96.3,215.1,215.1,215.1S449.2,359,449.2,240.3
				C449.2,121.5,352.9,25.2,234.1,25.2z M234.1,327.2c-48,0-87-38.9-87-87c0-48,38.9-87,87-87c48,0,87,38.9,87,87
				C321.1,288.3,282.2,327.2,234.1,327.2z"/>
		</defs>
		<clipPath id="SVGID_4_">
			<use xlink:href="#SVGID_3_"  overflow="visible"/>
		</clipPath>
		<g>
			<g clip-path="url(#SVGID_4_)">
				<g>
					<g>
						<path fill="#808080" stroke="#FFFFFF" stroke-miterlimit="10" d="M234,240.2h212.5c0,117.3-95.1,212.5-212.5,212.5
							S21.5,357.6,21.5,240.2l0,0H234z"/>
					</g>
				</g>
				<g>
					<g>
						<path fill="#E6E6E6" d="M234,240.2l212.4-3.7c0,0.8,0,2.9,0,3.7H234z"/>
					</g>
				</g>
				<g>
					<g>
						<path fill="#E6E6E6" d="M234,240.2l212.2-11.1c0.1,2.7,0.2,4.7,0.3,7.4L234,240.2z"/>
					</g>
				</g>
				<g>
					<g>
						<path fill="#E6E6E6" d="M234,240.2l211.9-14.8c0.1,0.8,0.2,2.9,0.2,3.7L234,240.2z"/>
					</g>
				</g>
				<g>
					<g>
						<path fill="#F5D9DB" d="M234,240.2l211.7-18.5c0.2,1.8,0.2,1.9,0.3,3.7L234,240.2z"/>
					</g>
				</g>
				<g>
					<g>
						<path fill="#F5D9DB" d="M234,240.2l210.4-29.6c0.5,3.6,0.9,7.4,1.3,11.1L234,240.2z"/>
					</g>
				</g>
				<g>
					<g>
						<path fill="#F5D9DB" d="M234,240.2l209.2-36.9c0.5,2.7,0.8,4.7,1.2,7.3L234,240.2z"/>
					</g>
				</g>
				<g>
					<g>
						<path fill="#F5D9DB" d="M234,240.2l93.1-191c63.4,30.9,103.9,84.6,116.1,154.1L234,240.2z"/>
					</g>
				</g>
				<g>
					<g>
						<path fill="#D9F0FA" d="M234,240.2l65.7-202.1c9.5,3.1,18.5,6.7,27.5,11.1L234,240.2z"/>
					</g>
				</g>
				<g>
					<g>
						<path fill="#D9F0FA" d="M234,240.2l51.4-206.2c4.4,1.1,9.9,2.7,14.3,4.1L234,240.2z"/>
					</g>
				</g>
				<g>
					<g>
						<path fill="#D9F0FA" d="M234,240.2l-7.4-212.3c21-0.7,38.4,1.1,58.8,6.2L234,240.2z"/>
					</g>
				</g>
				<g>
					<g>
						<path fill="#D9F0FA" d="M234,240.2L144.2,47.7c27.3-12.7,52.2-18.7,82.4-19.8L234,240.2z"/>
					</g>
				</g>
				<g>
					<g>
						<path fill="#D9F0FA" d="M234,240.2L131,54.4c4.7-2.6,8.3-4.5,13.2-6.7L234,240.2z"/>
					</g>
				</g>
				<g>
					<g>
						<path fill="#009BDB" d="M234,240.2H21.5C21.5,160.5,61.3,93,131,54.4L234,240.2z"/>
					</g>
				</g>
			</g>
			<g clip-path="url(#SVGID_4_)">
				<g>
				</g>
				<g>
				</g>
				<g>
				</g>
				<g>
				</g>
				<g>
				</g>
				<g>
				</g>
				<g>
				</g>
				<g>
				</g>
				<g>
				</g>
				<g>
				</g>
				<g>
				</g>
				<g>
				</g>
				<g>
				</g>
				<g>
				</g>
			</g>
		</g>
	</g>
	
		<line clip-path="url(#SVGID_2_)" fill="none" stroke="#000000" stroke-width="1.2" stroke-linecap="round" stroke-miterlimit="10" stroke-dasharray="0,1.999" x1="3.2" y1="260.5" x2="461.5" y2="260.5"/>
</g>
<line fill="none" stroke="#FFFFFF" stroke-width="2" stroke-miterlimit="10" x1="344" y1="16" x2="238" y2="232.3"/>
<line fill="none" stroke="#FFFFFF" stroke-width="2" stroke-miterlimit="10" x1="454.5" y1="224" x2="234" y2="239.3"/>
<g>
</g>
<g>
</g>
<g>
</g>
<g>
</g>
<g>
</g>
<g>
</g>
<g>
</g>
<g>
</g>
<g>
</g>
<g>
</g>
<g>
</g>
<g>
</g>
<g>
</g>
<g>
</g>
<g>
</g>
</svg>
